# xmcd
#
# Track frame offsets: 
#        150
#        19320
#        30230
#        41512
#        47797
#        66730
#        82765
#        93265
#        108062
#        117367
#        139875
#        148080
#        170185
#        178832
#        192567
#        204472
#
# Disc length: 2865 seconds
#
# Revision: 0
# Processed by: cddbd v1.4PL0 Copyright (c) Steve Scherf et al.
# Submitted via: ExactAudioCopy v0.90b2
#
DISCID=e70b2f10
DTITLE=Various Artist - Newport Folk Festival - Best of Bluegrass 195
DTITLE=9-66 - Disk 2
DYEAR=1900
DGENRE=Bluegrass
TTITLE0=Don Stover/Kansas City Railroad Blues
TTITLE1=Don Stover/Rabbit Soup
TTITLE2=Don Stover/Flint Hill Special
TTITLE3=Don Stover/Earl's Breakdown
TTITLE4=The Lilly Brothers with Don Stover and Tex Logan/Why Did You Wan
TTITLE4=der
TTITLE5=The Lilly Brothers with Don Stover and Tex Logan/Bury Me Beneath
TTITLE5=the Willow
TTITLE6=The Lilly Brothers with Don Stover and Tex Logan/Billy in the Lo
TTITLE6=wground
TTITLE7=The Lilly Brothers with Don Stover and Tex Logan/Little Annie
TTITLE8=The Lilly Brothers with Don Stover and Tex Logan/I'll Live On
TTITLE9=Bill Monroe and his Bluegrass Boys/Walls of TIme
TTITLE10=Bill Monroe and his Bluegrass Boys/Grey Eagle
TTITLE11=Bill Monroe and his Bluegrass Boys/Cotton-Eyed Joe
TTITLE12=Bill Monroe and his Bluegrass Boys/Shady Grove
TTITLE13=Bill Monroe and his Bluegrass Boys/Blue Yodel #4
TTITLE14=Bill Monroe and his Bluegrass Boys/Molly and Tenbrooks
TTITLE15=Bill Monroe and his Bluegrass Boys/Bluegrass Breakdown
EXTD=
EXTT0=
EXTT1=
EXTT2=
EXTT3=
EXTT4=
EXTT5=
EXTT6=
EXTT7=
EXTT8=
EXTT9=
EXTT10=
EXTT11=
EXTT12=
EXTT13=
EXTT14=
EXTT15=
PLAYORDER=
